PathFileType	4	(X/Y/Z)	C:/Users/beibeiliu/ov580/test_trc/User2\sequence.11_training_dense_left.trc
DataRate	CameraRate	NumFrames	NumMarkers	Units	OrigDataRate	OrigDataStartFrame	OrigNumFrames
120	120	12	19	mm	120	275	366
Frame#	Time	ThumbCMC			ThumbMCP			ThumbIP			ThumbTip			IndexMCP			IndexPIP			IndexTip			MiddleMCP			MiddlePIP			MiddleTip			RingMCP			RingPIP			RingTip			PinkyMCP			PinkyPIP			PinkyTip			BackHand1			BackHand2			BackHand3	
		X0	Y0	Z0	X1	Y1	Z1	X2	Y2	Z2	X3	Y3	Z3	X4	Y4	Z4	X5	Y5	Z5	X6	Y6	Z6	X7	Y7	Z7	X8	Y8	Z8	X9	Y9	Z9	X10	Y10	Z10	X11	Y11	Z11	X12	Y12	Z12	X13	Y13	Z13	X14	Y14	Z14	X15	Y15	Z15	X16	Y16	Z16	X17	Y17	Z17	X18	Y18	Z18	
274	2.28333	-144.941	9.65674	127.43	-120.156	15.1119	100.122	-105.668	12.8577	64.9194	-101.902	-0.114732	41.4314	-195.356	15.1985	61.6681	-198.699	24.0543	32.6208	-193.415	24.2109	0.55084	-212.893	-7.71755	58.2293	-219.23	-4.68983	22.9201	-212.678	-9.15162	-9.08254	-211.398	-36.6144	59.2243	-216.037	-37.9473	30.8396	-207.795	-39.321	-0.54924	-200.024	-62.5716	69.7362	-202.004	-69.2731	41.4906	-200.764	-70.9146	14.1371	-197.104	-35.1526	114.164	-193.41	-36.3515	144.459	-187.602	-3.90162	132.15	
275	2.29167	-148.919	12.11	124.218	-125.161	15.7918	97.1228	-110.514	13.0638	62.8005	-106.547	-2.82875	36.8127	-199.546	9.28364	59.4406	-202.554	15.5522	25.7654	-197.705	13.6772	-2.60715	-213.818	-20.0528	53.7483	-219.182	-17.8084	18.4911	-211.06	-27.5431	-13.09	-208.162	-44.2274	60.6006	-213.915	-50.7197	29.0354	-204.168	-50.881	-4.40358	-193.921	-68.0915	70.4313	-195.614	-76.5814	41.3468	-189.894	-81.1196	13.2006	-195.742	-46.5725	112.771	-194.28	-45.5644	144.014	-190.31	-8.70882	126.328	
276	2.3	-156.359	7.66177	123.905	-132.63	16.7416	94.3487	-117.01	13.4521	64.864	-109.514	-0.286162	39.7407	-203.791	-1.79169	52.8901	-207.164	0.219809	27.4288	-199.64	-0.82176	-2.37254	-212.774	-33.8884	51.6359	-216.425	-36.356	17.68	-206.207	-41.7	-16.9133	-202.153	-60.6569	59.3167	-205.996	-67.2681	30.1766	-196.419	-65.5829	-0.836556	-185.133	-80.4594	67.978	-183.247	-90.7564	44.0015	-175.808	-93.9329	15.3683	-193.478	-52.6155	112.254	-190.044	-50.9259	142.751	-194.492	-15.6525	125.6	
277	2.30833	-163.014	9.04873	121.685	-141.548	16.1429	91.9724	-123.294	15.6493	61.4344	-111.633	3.94816	39.2319	-205.248	-16.0019	48.9666	-207.717	-12.9446	19.5298	-198.863	-13.1059	-10.3501	-206.16	-49.1141	51.9096	-209.823	-54.8875	18.2801	-195.963	-58.9111	-18.8088	-193.766	-69.8233	57.4338	-192.802	-82.0194	30.6479	-181.445	-77.3204	-2.56941	-170.218	-86.8196	70.7525	-166.614	-94.6006	41.7723	-157.62	-103.778	17.9366	-184.91	-62.826	111.521	-184.686	-55.697	143.443	-194.228	-26.4743	119.763	
278	2.31667	-172.237	7.28918	117.935	-151.065	21.1911	86.6637	-132.874	20.5829	56.069	-117.047	8.89227	34.1488	-204.962	-28.8233	46.0244	-204.836	-29.5981	15.7148	-196.407	-29.0621	-12.5889	-199.41	-60.1974	48.8591	-198.066	-70.6627	14.2197	-181.734	-73.2482	-17.1653	-178.729	-81.9391	58.7376	-174.581	-92.5993	28.7956	-163.352	-91.2255	0.580671	-153.457	-92.3586	74.7	-147.564	-99.2507	43.3842	-137.798	-103.204	22.3903	-176.101	-68.78	111.171	-181.474	-59.9545	143.811	-195.663	-32.6152	116.583	
279	2.325	-181.56	3.08517	112.477	-162.103	15.7206	85.3869	-143.671	22.876	51.5287	-125.675	12.4091	33.3369	-200.859	-43.8334	43.4052	-202.113	-42.8497	14.6757	-190.252	-44.0997	-15.7625	-187.109	-74.2049	45.9206	-182.309	-83.0098	13.1605	-166.052	-84.314	-17.1288	-164.799	-88.6338	57.6031	-156.709	-98.7811	28.8777	-144.507	-94.9657	0.766001	-138.851	-91.0547	74.9337	-129.371	-100.291	52.3519	-115.554	-104.297	28.4024	-172.121	-69.5803	107.622	-174.909	-66.7664	142.236	-195.955	-42.1037	118.532	
280	2.33333	-189.396	-2.67352	112.592	-174.826	14.5462	81.6847	-156.586	16.8509	52.1012	-138.476	15.6438	32.8428	-195.591	-54.2768	46.3409	-195.119	-59.8537	17.253	-187.843	-57.1863	-11.2087	-179.108	-78.8239	47.5439	-170.821	-90.1056	18.4526	-155.628	-88.9101	-16.1608	-153.374	-89.1225	62.1246	-143.813	-98.6605	29.4503	-127.608	-97.6624	3.04304	-128.181	-87.7737	77.2138	-113.973	-95.7281	52.5134	-101.599	-97.6691	29.9018	-163.766	-73.6798	110.951	-167.861	-68.0178	146.419	-191.377	-50.0826	119.014	
281	2.34167	-192.039	-11.1748	111.402	-185.505	10.1775	79.4593	-169.898	18.0137	52.6893	-149.841	12.202	33.5289	-191.989	-61.5081	47.6115	-194.629	-66.309	14.7976	-185.666	-64.279	-13.2296	-171.889	-85.6767	47.9066	-161.296	-94.4946	15.7796	-144.534	-93.5777	-11.645	-146.1	-89.9074	58.6673	-133.517	-98.5923	34.3321	-123.304	-93.3086	1.99811	-118.907	-82.7021	80.775	-107.041	-88.5963	50.8098	-90.8567	-89.3961	28.4281	-157.388	-72.8828	110.502	-163.062	-67.777	144.939	-188.447	-54.5694	117.998	
282	2.35	-198.556	-13.3946	109.441	-191.726	6.42725	84.7242	-181.786	18.6731	52.8377	-159.357	15.1248	29.2772	-194.029	-65.4845	45.5855	-194.935	-68.2068	17.9101	-185.445	-66.6043	-14.1572	-164.911	-87.3576	48.9674	-160.178	-94.6195	16.7659	-143.966	-92.2617	-11.0914	-143.379	-88.1658	58.036	-131.976	-94.7754	31.2817	-115.86	-91.4689	1.78754	-117.636	-78.88	74.653	-100.448	-83.5273	50.3732	-89.4426	-82.1813	27.1489	-156.096	-74.3073	110.714	-156.851	-68.0207	144.758	-190.742	-58.057	117.491	
283	2.35833	-198.817	-17.1204	114.126	-197.067	3.18759	82.3493	-187.835	14.9205	52.8333	-170.073	16.0475	30.748	-193.861	-65.655	49.9695	-195.245	-70.432	21.0945	-187.64	-68.3252	-11.6836	-166.366	-85.321	48.7731	-156.697	-93.1841	18.9372	-143.493	-89.989	-12.2374	-138.274	-85.2112	60.0759	-127.232	-91.526	31.4119	-117.54	-85.7529	1.77069	-114.345	-73.3242	73.8194	-99.0793	-76.1903	51.4904	-90.385	-77.686	27.4039	-149.478	-73.1192	113.462	-159.096	-65.1642	143.815	-189.265	-59.6208	118.08	
284	2.36667	-199.461	-18.9412	117.114	-202.56	1.98921	87.7389	-196.715	13.7235	54.7738	-175.663	11.7141	33.5327	-192.584	-67.5156	53.1785	-194.004	-73.379	17.2472	-192.067	-68.2431	-11.1672	-165.275	-83.6389	52.3302	-158.289	-91.9784	20.1808	-146.821	-86.659	-13.625	-139.65	-81.4548	57.9462	-129.29	-87.855	31.6464	-121.814	-81.3702	0.890555	-116.98	-69.3451	70.1518	-103.08	-70.7491	50.0556	-88.5996	-69.9924	22.0238	-150.634	-69.4178	110.139	-151.652	-66.2336	147.366	-188.313	-59.2479	120.515	
285	2.375	-201.243	-21.1564	117.062	-208.731	0.359362	87.62	-200.983	11.4261	56.9704	-186.714	15.2869	31.5359	-193.714	-70.2139	49.9542	-200.846	-73.25	18.6969	-196.005	-69.8928	-8.26297	-163.505	-85.2111	49.8299	-158.854	-90.7125	15.8789	-148.759	-84.6411	-15.2172	-139.283	-78.9914	60.1351	-131.869	-84.8061	29.5749	-120.67	-78.0482	-0.609571	-117.9	-65.7618	69.8497	-101.287	-66.6962	45.9902	-93.2047	-65.0633	22.583	-149.415	-69.428	112.647	-150.56	-64.5058	141.987	-185.701	-60.06	123.959	
